<svg width="41" height="40" viewBox="0 0 41 40" fill="none" xmlns="http://www.w3.org/2000/svg">
<g clip-path="url(#clip0_808_335)">
<path d="M12.1667 31.6667C14.0077 31.6667 15.5 30.1743 15.5 28.3333C15.5 26.4924 14.0077 25 12.1667 25C10.3258 25 8.83337 26.4924 8.83337 28.3333C8.83337 30.1743 10.3258 31.6667 12.1667 31.6667Z" stroke="#FAFAFA" stroke-width="2" stroke-linecap="round" stroke-linejoin="round"/>
<path d="M28.8333 31.6667C30.6743 31.6667 32.1667 30.1743 32.1667 28.3333C32.1667 26.4924 30.6743 25 28.8333 25C26.9924 25 25.5 26.4924 25.5 28.3333C25.5 30.1743 26.9924 31.6667 28.8333 31.6667Z" stroke="#FAFAFA" stroke-width="2" stroke-linecap="round" stroke-linejoin="round"/>
<path d="M8.83325 28.3335H7.49992C6.39535 28.3335 5.49992 27.4381 5.49992 26.3335V21.6668M3.83325 8.3335H20.1666C21.2712 8.3335 22.1666 9.22893 22.1666 10.3335V28.3335M15.4999 28.3335H25.4999M32.1666 28.3335H33.4999C34.6045 28.3335 35.4999 27.4381 35.4999 26.3335V18.3335M35.4999 18.3335H22.1666M35.4999 18.3335L31.0825 10.9712C30.7211 10.3688 30.0701 10.0002 29.3675 10.0002H22.1666" stroke="#FAFAFA" stroke-width="2" stroke-linecap="round" stroke-linejoin="round"/>
<path d="M8.5 28H7.16667C6.0621 28 5.16667 27.1046 5.16667 26V21.3333M3.5 8H19.8333C20.9379 8 21.8333 8.89543 21.8333 10V28M15.5 28H25.1667M32.5 28H33.1667C34.2712 28 35.1667 27.1046 35.1667 26V18M35.1667 18H21.8333M35.1667 18L30.7493 10.6377C30.3878 10.0353 29.7368 9.66667 29.0343 9.66667H21.8333" stroke="#FAFAFA" stroke-width="2" stroke-linecap="round" stroke-linejoin="round"/>
<path d="M5.5 11.8184H12.1667" stroke="#FAFAFA" stroke-width="2" stroke-linecap="round" stroke-linejoin="round"/>
<path d="M2.31824 15.4546H8.9849" stroke="#FAFAFA" stroke-width="2" stroke-linecap="round" stroke-linejoin="round"/>
<path d="M5.5 19.0908H12.1667" stroke="#FAFAFA" stroke-width="2" stroke-linecap="round" stroke-linejoin="round"/>
</g>
<defs>
<clipPath id="clip0_808_335">
<rect width="40" height="40" fill="white" transform="translate(0.5)"/>
</clipPath>
</defs>
</svg>
